<svg width="16" height="16" viewBox="0 0 16 16" fill="none" xmlns="http://www.w3.org/2000/svg">
<rect width="16" height="16" fill="black" fill-opacity="0.01"/>
<rect width="16" height="16" rx="3.2" fill="#EDEFF2"/>
<rect x="0.5" y="0.5" width="15" height="15" rx="2.7" stroke="black" stroke-opacity="0.4"/>
<mask id="mask0" mask-type="alpha" maskUnits="userSpaceOnUse" x="0" y="0" width="16" height="16">
<rect width="16" height="16" rx="3.2" fill="white"/>
<rect x="0.5" y="0.5" width="15" height="15" rx="2.7" stroke="white"/>
</mask>
<g mask="url(#mask0)">
<mask id="path-5-inside-1" fill="white">
<path fill-rule="evenodd" clip-rule="evenodd" d="M9.14286 8.5898C9.98955 8.16903 10.5714 7.2953 10.5714 6.28566C10.5714 4.8655 9.42016 3.71423 8 3.71423C6.57984 3.71423 5.42857 4.8655 5.42857 6.28566C5.42857 7.2953 6.01044 8.16903 6.85714 8.5898V12.5714H9.14286V8.5898Z"/>
</mask>
<path fill-rule="evenodd" clip-rule="evenodd" d="M9.14286 8.5898C9.98955 8.16903 10.5714 7.2953 10.5714 6.28566C10.5714 4.8655 9.42016 3.71423 8 3.71423C6.57984 3.71423 5.42857 4.8655 5.42857 6.28566C5.42857 7.2953 6.01044 8.16903 6.85714 8.5898V12.5714H9.14286V8.5898Z" fill="#B8BDCC"/>
<path d="M9.14286 8.5898L8.69782 7.69428L8.14286 7.97008V8.5898H9.14286ZM6.85714 8.5898H7.85714V7.97008L7.30217 7.69428L6.85714 8.5898ZM6.85714 12.5714H5.85714V13.5714H6.85714V12.5714ZM9.14286 12.5714V13.5714H10.1429V12.5714H9.14286ZM9.58789 9.48531C10.7614 8.90211 11.5714 7.6894 11.5714 6.28566H9.57143C9.57143 6.9012 9.21767 7.43594 8.69782 7.69428L9.58789 9.48531ZM11.5714 6.28566C11.5714 4.31322 9.97244 2.71423 8 2.71423V4.71423C8.86787 4.71423 9.57143 5.41779 9.57143 6.28566H11.5714ZM8 2.71423C6.02755 2.71423 4.42857 4.31322 4.42857 6.28566H6.42857C6.42857 5.41779 7.13212 4.71423 8 4.71423V2.71423ZM4.42857 6.28566C4.42857 7.6894 5.23857 8.90211 6.41211 9.48531L7.30217 7.69428C6.78232 7.43594 6.42857 6.9012 6.42857 6.28566H4.42857ZM7.85714 12.5714V8.5898H5.85714V12.5714H7.85714ZM9.14286 11.5714H6.85714V13.5714H9.14286V11.5714ZM8.14286 8.5898V12.5714H10.1429V8.5898H8.14286Z" fill="#5C5E66" mask="url(#path-5-inside-1)"/>
</g>
</svg>
