<?xml version="1.0" encoding="UTF-8"?>
<svg width="16px" height="16px" viewBox="0 0 16 16" version="1.1" xmlns="http://www.w3.org/2000/svg" xmlns:xlink="http://www.w3.org/1999/xlink">
    <title>icons_01_16_ladybug_onDark</title>
    <defs>
        <filter id="filter-1">
            <feColorMatrix in="SourceGraphic" type="matrix" values="0 0 0 0 1.000000 0 0 0 0 1.000000 0 0 0 0 1.000000 0 0 0 1.000000 0"></feColorMatrix>
        </filter>
    </defs>
    <g id="----↳--01-Icons" stroke="none" stroke-width="1" fill="none" fill-rule="evenodd">
        <g id="tint" filter="url(#filter-1)">
            <g>
                <path d="M11.0497858,5.89364647 C11.8837052,6.95582659 12.3810052,8.29483798 12.3810052,9.75 C12.3810052,11.8368474 11.3582372,13.6848145 9.78661729,14.8199852 C9.49088816,13.7694788 8.5258074,13 7.38100523,13 C6.00029336,13 4.88100523,14.1192881 4.88100523,15.5 C4.88100523,15.6292138 4.89080811,15.756138 4.90971073,15.8800695 C3.9295096,15.6863928 3.03160163,15.2631163 2.27434229,14.6685685 L11.0497858,5.89364647 Z M6.13100523,3.5 C7.58616726,3.5 8.92517864,3.99730002 9.98735876,4.83121943 L1.21299882,13.6073899 C0.617953225,12.8497636 0.194140546,11.9511376 -1.6654178e-12,10.9699241 C0.124634017,10.9901791 0.251672729,11 0.381005233,11 C1.76171711,11 2.88100523,9.88071187 2.88100523,8.5 C2.88100523,7.35519784 2.11152643,6.39011708 1.06155973,6.09374862 C2.19619075,4.52276803 4.04415786,3.5 6.13100523,3.5 Z M10.3810052,9 C9.55257811,9 8.88100523,9.67157288 8.88100523,10.5 C8.88100523,11.3284271 9.55257811,12 10.3810052,12 C11.2094324,12 11.8810052,11.3284271 11.8810052,10.5 C11.8810052,9.67157288 11.2094324,9 10.3810052,9 Z M5.88100523,4.5 C5.1906493,4.5 4.63100523,5.05964406 4.63100523,5.75 C4.63100523,6.44035594 5.1906493,7 5.88100523,7 C6.57136117,7 7.13100523,6.44035594 7.13100523,5.75 C7.13100523,5.05964406 6.57136117,4.5 5.88100523,4.5 Z M11.3810052,-2.50466314e-13 C11.6571476,-2.50517041e-13 11.8810052,0.223857625 11.8810052,0.5 L11.8809163,2.17067428 C12.7334013,2.47195412 13.4090511,3.1476039 13.710331,4.00008893 L15.3810052,4 C15.6571476,4 15.8810052,4.22385763 15.8810052,4.5 C15.8810052,4.77614237 15.6571476,5 15.3810052,5 L13.8810052,5 C13.8810052,5.66807182 13.6626313,6.28513967 13.2933698,6.78371713 C12.5072399,4.88886436 10.9919387,3.37360865 9.09757321,2.58805843 C9.59503115,2.21866935 10.2124817,2 10.8810052,2 L10.8810052,0.5 C10.8810052,0.223857625 11.1048629,-2.50415588e-13 11.3810052,-2.50466314e-13 Z" id="Combined-Shape" fill="#000000" fill-rule="nonzero" transform="translate(7.940503, 7.940035) scale(-1, 1) translate(-7.940503, -7.940035) "></path>
            </g>
        </g>
    </g>
</svg>