<?xml version="1.0" encoding="UTF-8"?>
<svg width="16px" height="16px" viewBox="0 0 16 16" version="1.1" xmlns="http://www.w3.org/2000/svg" xmlns:xlink="http://www.w3.org/1999/xlink">
    <title>icons_01_16_ladybug_onLight</title>
    <defs>
        <filter id="filter-1">
            <feColorMatrix in="SourceGraphic" type="matrix" values="0 0 0 0 0.000000 0 0 0 0 0.000000 0 0 0 0 0.000000 0 0 0 1.000000 0"></feColorMatrix>
        </filter>
    </defs>
    <g id="----↳--01-Icons" stroke="none" stroke-width="1" fill="none" fill-rule="evenodd">
        <g id="tint" filter="url(#filter-1)">
            <g id="Group" transform="translate(8.000000, 8.000000) scale(-1, 1) translate(-8.000000, -8.000000) " fill="#000000" fill-rule="nonzero">
                <path d="M11.5,1.86517468e-14 C11.7761424,1.86010203e-14 12,0.223857625 12,0.5 L12.0009007,2.17102423 C12.852919,2.47247709 13.5281625,3.14793381 13.8293257,4.00008893 L15.5,4 C15.7761424,4 16,4.22385763 16,4.5 C16,4.77614237 15.7761424,5 15.5,5 L14,5 C14,6.56707397 12.798473,7.85351628 11.2664137,7.98833235 C10.7769038,6.44210111 9.55725533,5.22262302 8.01280518,4.73294206 C8.14167367,3.25910407 9.33758927,2.0912015 10.8237272,2.00509269 L11,2 L11,0.5 C11,0.223857625 11.2238576,1.87024733e-14 11.5,1.86517468e-14 Z" id="Combined-Shape"></path>
                <path d="M6.5,3 C10.0898509,3 13,5.91014913 13,9.5 C13,13.0898509 10.0898509,16 6.5,16 C2.91014913,16 0,13.0898509 0,9.5 C0,5.91014913 2.91014913,3 6.5,3 Z M10.5264988,6.53510894 L3.53510894,13.5264988 C4.17028374,13.9949884 4.92028653,14.3167783 5.73511092,14.4418622 C5.58494412,14.160575 5.5,13.8402074 5.5,13.5 C5.5,12.3954305 6.3954305,11.5 7.5,11.5 C8.60390006,11.5 9.49891455,12.3943455 9.49999901,13.4979919 C10.3321718,12.8749088 10.9621948,11.9974073 11.2769329,10.9812961 C10.5539543,10.8754029 10,10.2523929 10,9.5 C10,8.74760707 10.5539543,8.1245971 11.2762593,8.01657368 C11.1098952,7.47943387 10.8540534,6.97920509 10.5264988,6.53510894 Z M7.98129611,4.72306715 L7.97295275,4.78503493 C7.83981186,5.47714915 7.23096511,6 6.5,6 C5.74760707,6 5.1245971,5.4460457 5.01657368,4.72374069 C4.03577495,5.02752709 3.18255061,5.62701623 2.56252705,6.41803841 L2.5,6.5 L2.5,6.5 C3.6045695,6.5 4.5,7.3954305 4.5,8.5 C4.5,9.6045695 3.6045695,10.5 2.5,10.5 C2.15979259,10.5 1.83942495,10.4150559 1.55894921,10.2652198 C1.68322168,11.0797135 2.00501158,11.8297163 2.47350115,12.4648911 L9.46489106,5.47350115 C9.02079491,5.14594657 8.52056613,4.89010478 7.98129611,4.72306715 Z" id="Combined-Shape"></path>
            </g>
        </g>
    </g>
</svg>