<svg xmlns="http://www.w3.org/2000/svg" width="16" height="16" viewBox="0 0 16 16">
  <path d="M6.8537892,1.21833206 C7.15119256,0.927222646 7.63337866,0.927222646 7.93078202,1.21833206 L7.93078202,1.21833206 L13.9615791,7.12149962 C14.4572514,7.60668198 14.4572514,8.39331802 13.9615791,8.87850038 L13.9615791,8.87850038 L7.93078202,14.7816679 C7.63337866,15.0727774 7.15119256,15.0727774 6.8537892,14.7816679 L6.8537892,14.7816679 L6.55638585,14.4905585 C6.25898249,14.1994491 6.25898249,13.7274675 6.55638585,13.4363581 L6.55638585,13.4363581 L11.087,9 L2.5,9 C2.22385763,9 2,8.77614237 2,8.5 L2,7.5 C2,7.22385763 2.22385763,7 2.5,7 L11.088,7 L6.55638585,2.56364193 C6.28601916,2.298997 6.26144037,1.88487092 6.48264948,1.59304761 L6.55638585,1.50944148 Z"/>
</svg>
