<svg xmlns="http://www.w3.org/2000/svg" width="16" height="16" viewBox="0 0 16 16">
  <g fill="none" fill-rule="evenodd">
    <path stroke="#000" stroke-width="2" d="M8,1 C9.93299662,1 11.6829966,1.78350169 12.9497475,3.05025253 C14.2164983,4.31700338 15,6.06700338 15,8 C15,9.93299662 14.2164983,11.6829966 12.9497475,12.9497475 C11.6829966,14.2164983 9.93299662,15 8,15 C6.57801618,15 5.25490623,14.5763778 4.15058739,13.847582 L4.15058739,13.847582 L1.43283577,14.5788799 L2.17988961,11.8907281 C1.43429315,10.7781579 1,9.43976098 1,8 C1,6.06700338 1.78350169,4.31700338 3.05025253,3.05025253 C4.31700338,1.78350169 6.06700338,1 8,1 Z"/>
    <path fill="#000" d="M9.96799527,8.87985019 C9.81014833,8.81794103 9.69533252,8.78703986 9.58051672,8.97269612 C9.46570091,9.15838798 9.13563026,9.57630148 9.03515817,9.70011979 C8.93471913,9.82390249 8.83424704,9.83945988 8.66202333,9.74654275 C8.48979963,9.65369682 7.93485657,9.45782323 7.27702877,8.82573753 C6.76505076,8.33381073 6.41938049,7.72632493 6.31894145,7.54059746 C6.21846936,7.35487 6.30820019,7.25447678 6.39442772,7.16198685 C6.47193004,7.07885983 6.56668448,6.94528701 6.65277981,6.83695489 C6.73890818,6.72865837 6.76759561,6.65122742 6.82500351,6.52748031 C6.88241142,6.4036264 6.85372399,6.29532988 6.81062675,6.20248395 C6.76759561,6.10963802 6.4231482,5.19645129 6.27964497,4.82496076 C6.13984334,4.46326035 5.99786041,4.51224655 5.89213337,4.50651488 C5.79179347,4.50113921 5.67684547,4.5 5.56206272,4.5 C5.44724691,4.5 5.26064644,4.54642297 5.10276645,4.73211483 C4.9449195,4.91784229 4.5,5.36669256 4.5,6.27977249 C4.5,7.19295923 5.11711016,8.07506678 5.20323854,8.19888509 C5.28936692,8.322739 6.41766189,10.1965322 8.14538526,11.0001052 C8.55626324,11.1912796 8.87707988,11.3054146 9.12720251,11.3908912 C9.53976603,11.5321181 9.91521437,11.5121819 10.2119706,11.4644061 C10.5428675,11.4111834 11.2309361,11.0156626 11.3744723,10.5823341 C11.5179756,10.1488989 11.5179756,9.77747953 11.4749114,9.70011979 C11.4318802,9.62272444 11.3170644,9.57630148 11.1448407,9.48341994 C10.972617,9.39057401 10.1258753,8.94183054 9.96799527,8.87985019 Z"/>
  </g>
</svg>
