<svg xmlns="http://www.w3.org/2000/svg" width="16" height="16" viewBox="0 0 16 16">
  <path d="M9.1462108,1.21833206 L9.44361415,1.50944148 C9.74101751,1.80055089 9.74101751,2.27253251 9.44361415,2.56364193 L4.91066667,7 L13.5,7 C13.7761424,7 14,7.22385763 14,7.5 L14,8.5 C14,8.77614237 13.7761424,9 13.5,9 L4.91166667,9 L9.44361415,13.4363581 C9.74101751,13.7274675 9.74101751,14.1994491 9.44361415,14.4905585 L9.1462108,14.7816679 C8.84880744,15.0727774 8.36662134,15.0727774 8.06921798,14.7816679 L2.03842086,8.87850038 C1.5427486,8.39331802 1.5427486,7.60668198 2.03842086,7.12149962 L8.06921798,1.21833206 C8.36662134,0.927222646 8.84880744,0.927222646 9.1462108,1.21833206 Z"/>
</svg>
