<svg xmlns="http://www.w3.org/2000/svg" width="16" height="16" viewBox="0 0 16 16">
  <path d="M14.8893182,1.50659559 C14.7244837,1.19411012 14.4043611,1 14.0524172,1 L1.94758282,1 C1.59627532,1 1.27551631,1.19411012 1.11068181,1.50659559 C0.944574462,1.8222632 0.966849394,2.20030061 1.16796021,2.49369328 L5.94021472,9.60894292 C5.97712746,9.66303919 5.99685669,9.725409 5.99685669,9.79032451 L5.99685669,15.0454624 C5.99685669,15.5717873 6.42517181,15.9994659 6.95149662,15.9994659 C7.12269538,15.9994659 7.29134844,15.9523704 7.4409087,15.8626342 L9.53697771,14.715157 C9.82209684,14.5433218 9.99902344,14.2301999 9.99902344,13.8979852 L9.99902344,9.79032451 C9.99902344,9.725409 10.0187527,9.66303919 10.0563018,9.6083065 L14.8320398,2.49432971 C15.0331506,2.20093704 15.0554255,1.8222632 14.8893182,1.50659559 Z"/>
</svg>
