<svg xmlns="http://www.w3.org/2000/svg" width="16" height="16" viewBox="0 0 16 16">
  <path d="M10,14 C10,15.1046667 9.104,16 8,16 C6.894,16 6,15.1046667 6,14 L10,14 Z M8,5.32907052e-15 C9.0543618,5.32907052e-15 9.91816512,0.807009554 9.99451426,1.83062094 L10,1.97826087 L10.0008716,2.67518635 C12.0669652,3.44828661 13.5607013,5.37679395 13.6612609,7.66638467 L13.6666667,7.91304348 L13.6666667,9.5615942 C13.6666667,10.6152301 14.423202,12.834045 15.8398796,12.9911879 L16,13 L0,13 C1.71220584,13 2.29327143,10.81324 2.331309,9.67895037 L2.33333333,9.5615942 L2.33333333,7.91304348 C2.33333333,5.5055 3.87,3.458 6.02466667,2.66471739 L6,2.673 L6,1.97826087 L6.00548574,1.83062094 C6.08183488,0.807009554 6.9456382,5.32907052e-15 8,5.32907052e-15 Z"/>
</svg>
