<svg xmlns="http://www.w3.org/2000/svg" width="16" height="16" viewBox="0 0 16 16">
  <path d="M11 11C11.5522847 11 12 11.4477153 12 12 12 12.5522847 11.5522847 13 11 13L9 13C8.44771525 13 8 12.5522847 8 12 8 11.4477153 8.44771525 11 9 11L11 11zM13 7C13.5522847 7 14 7.44771525 14 8 14 8.55228475 13.5522847 9 13 9L9 9C8.44771525 9 8 8.55228475 8 8 8 7.44771525 8.44771525 7 9 7L13 7zM15 3C15.5522847 3 16 3.44771525 16 4 16 4.55228475 15.5522847 5 15 5L9 5C8.44771525 5 8 4.55228475 8 4 8 3.44771525 8.44771525 3 9 3L15 3zM2.93972582 14.9970241C2.70382116 14.9831593 2.47189241 14.886106 2.29165043 14.705864L2.29165043 14.705864.347106781 12.7613203C-.0434175106 12.3707961-.0434175106 11.7376311.347106781 11.3471068.737631073 10.9565825 1.37079605 10.9565825 1.76132034 11.3471068L1.76132034 11.3471068 1.99921356 11.585 2 3C2 2.44771525 2.44771525 2 3 2 3.55228475 2 4 2.44771525 4 3L3.99921356 11.589 4.24165043 11.3471068C4.63217472 10.9565825 5.2653397 10.9565825 5.65586399 11.3471068 6.04638828 11.7376311 6.04638828 12.3707961 5.65586399 12.7613203L3.71132034 14.705864C3.53107836 14.886106 3.29914961 14.9831593 3.06324495 14.9970241z"/>
</svg>
