<svg xmlns="http://www.w3.org/2000/svg" width="16" height="16" viewBox="0 0 16 16">
  <g fill="none" fill-rule="evenodd">
    <rect width="16" height="16" opacity=".3"/>
    <polyline stroke="#000" stroke-linecap="round" stroke-linejoin="round" stroke-width="2" points="11 5 8 8 11 11" transform="matrix(-1 0 0 1 19 0)"/>
    <polyline stroke="#000" stroke-linecap="round" stroke-linejoin="round" stroke-width="2" points="15 5 12 8 15 11" transform="matrix(-1 0 0 1 27 0)"/>
    <path fill="#000" fill-rule="nonzero" d="M3.05421356,2 C2.54137772,2 2.1187064,2.38604019 2.06094129,2.88337887 L2.05421356,3 L2.05421356,13 C2.05421356,13.5128358 2.44025375,13.9355072 2.93759244,13.9932723 L3.05421356,14 L9,14 C9.55228475,14 10,14.4477153 10,15 C10,15.5128358 9.61395981,15.9355072 9.11662113,15.9932723 L9,16 L3.05421356,16 C1.39735931,16 0.0542135624,14.6568542 0.0542135624,13 L0.0542135624,3 C0.0542135624,1.34314575 1.39735931,7.10542736e-15 3.05421356,7.10542736e-15 L9,7.10542736e-15 C9.55228475,7.10542736e-15 10,0.44771525 10,1 C10,1.51283584 9.61395981,1.93550716 9.11662113,1.99327227 L9,2 L3.05421356,2 Z"/>
  </g>
</svg>
