<svg width="16" height="16" viewBox="0 0 16 16" fill="none" xmlns="http://www.w3.org/2000/svg">
<rect width="16" height="16" fill="black" fill-opacity="0.01"/>
<path fill-rule="evenodd" clip-rule="evenodd" d="M5 2H2V10H4V12H1C0.447715 12 0 11.5523 0 11V1C0 0.447715 0.447715 0 1 0H5H6L7 1L8 2H7C6.23165 2 5.53076 2.28885 5 2.76389V2ZM8 6H11V7.9C11 8.50751 11.4925 9 12.1 9H14V14H8V6ZM16 9V8L15 7L13 5L12 4H11H7C6.44772 4 6 4.44771 6 5V15C6 15.5523 6.44772 16 7 16H15C15.5523 16 16 15.5523 16 15V9Z" fill="black"/>
</svg>
