<svg xmlns="http://www.w3.org/2000/svg" width="16" height="16" viewBox="0 0 16 16">
  <path d="M8.00500835,5 C9.02663285,5 9.92652328,5.51081075 10.4667234,6.29019164 C9.88703008,6.64051236 9.5,7.27572854 9.5,8 C9.5,8.72427146 9.88703008,9.35948764 10.4655855,9.71046957 C9.92652328,10.4891892 9.02663285,11 8.00500835,11 C6.98381601,11 6.0804538,10.4896213 5.53725896,9.71079728 C6.115404,9.3602207 6.5,8.72468939 6.5,8 C6.5,7.27531061 6.115404,6.6397793 5.53827101,6.28892312 C6.0804538,5.51037869 6.98381601,5 8.00500835,5 Z M8,9 C9.66785714,9 13,9.78 13,11.3333333 L13,11.3333333 L13,14 L3,14 L3,11.3333333 C3,9.78 6.33214286,9 8,9 Z M8.00500835,2 C9.66277129,2 11,3.345 11,5 C11,6.655 9.66277129,8 8.00500835,8 C6.34724541,8 5,6.655 5,5 C5,3.345 6.34724541,2 8.00500835,2 Z"/>
</svg>
