<svg xmlns="http://www.w3.org/2000/svg" width="16" height="16" viewBox="0 0 16 16">
  <path d="M3,5 C3.55228475,5 4,5.44771525 4,6 C4,6.55228475 3.55228475,7 3,7 L2,7 L2,14 L9,14 L9,13 C9,12.4477153 9.44771525,12 10,12 C10.5522847,12 11,12.4477153 11,13 L11,14 C11,15.1045695 10.1045695,16 9,16 L2,16 C0.8954305,16 0,15.1045695 0,14 L0,7 C0,5.8954305 0.8954305,5 2,5 L3,5 Z M10,5 C10.5522847,5 11,5.44771525 11,6 L11,10 C11,10.5522847 10.5522847,11 10,11 C9.44771525,11 9,10.5522847 9,10 L9,8.41421356 L5.58578644,11.8284271 C5.19526215,12.2189514 4.56209717,12.2189514 4.17157288,11.8284271 C3.78104858,11.4379028 3.78104858,10.8047379 4.17157288,10.4142136 L7.58578644,7 L6,7 C5.44771525,7 5,6.55228475 5,6 C5,5.44771525 5.44771525,5 6,5 L10,5 Z M14,0 C15.1045695,0 16,0.8954305 16,2 L16,9 C16,10.1045695 15.1045695,11 14,11 C13.4477153,11 13,10.5522847 13,10 C13,9.48716416 13.3860402,9.06449284 13.8833789,9.00672773 L14,9 L14,2 L7,2 C7,2.55228475 6.55228475,3 6,3 C5.48716416,3 5.06449284,2.61395981 5.00672773,2.11662113 L5,2 C5,0.8954305 5.8954305,0 7,0 L14,0 Z"/>
</svg>
