<svg xmlns="http://www.w3.org/2000/svg" width="16" height="16" viewBox="0 0 16 16">
  <path fill-rule="evenodd" d="M8,-1.42108547e-14 C12.418278,-1.42108547e-14 16,3.581722 16,8 C16,12.418278 12.418278,16 8,16 C3.581722,16 2.27373675e-13,12.418278 2.27373675e-13,8 C2.27373675e-13,3.581722 3.581722,-1.42108547e-14 8,-1.42108547e-14 Z M8,7 C7.44771525,7 7,7.44771525 7,8 L7,8 L7,11 C7,11.5522847 7.44771525,12 8,12 C8.55228475,12 9,11.5522847 9,11 L9,11 L9,8 C9,7.44771525 8.55228475,7 8,7 Z M8,4 C7.44771525,4 7,4.44771525 7,5 C7,5.55228475 7.44771525,6 8,6 C8.55228475,6 9,5.55228475 9,5 C9,4.44771525 8.55228475,4 8,4 Z"/>
</svg>
