<svg xmlns="http://www.w3.org/2000/svg" width="16" height="16" viewBox="0 0 16 16">
  <path d="M12,6 C13.1045695,6 14,6.8954305 14,8 L14,14 C14,15.1045695 13.1045695,16 12,16 L4,16 C2.8954305,16 2,15.1045695 2,14 L2,8 C2,6.8954305 2.8954305,6 4,6 L4.11662113,6.00672773 C4.61395981,6.06449284 5,6.48716416 5,7 C5,7.55228475 4.55228475,8 4,8 L4,8 L4,14 L12,14 L12,8 C11.4477153,8 11,7.55228475 11,7 C11,6.44771525 11.4477153,6 12,6 L12,6 Z M8.61289944,0.209704612 L8.70710678,0.292893219 L11.7071068,3.29289322 C12.0976311,3.68341751 12.0976311,4.31658249 11.7071068,4.70710678 C11.3466228,5.06759074 10.7793918,5.09532028 10.3871006,4.79029539 L10.2928932,4.70710678 L9,3.415 L9,10 C9,10.5522847 8.55228475,11 8,11 C7.44771525,11 7,10.5522847 7,10 L7,3.415 L5.70710678,4.70710678 C5.34662282,5.06759074 4.77939176,5.09532028 4.38710056,4.79029539 L4.29289322,4.70710678 C3.93240926,4.34662282 3.90467972,3.77939176 4.20970461,3.38710056 L4.29289322,3.29289322 L7.29289322,0.292893219 C7.65337718,-0.0675907428 8.22060824,-0.0953202783 8.61289944,0.209704612 Z"/>
</svg>
