<svg xmlns="http://www.w3.org/2000/svg" width="16" height="16" viewBox="0 0 16 16">
  <path fill-rule="evenodd" d="M14,5 C15.1045695,5 16,5.8954305 16,7 L16,11 C16,11.5522847 15.5522847,12 15,12 L13,12 L13,14 C13,15.1045695 12.1045695,16 11,16 L5,16 C3.8954305,16 3,15.1045695 3,14 L3,12 L1,12 C0.44771525,12 9.92105515e-14,11.5522847 9.91429161e-14,11 L9.91429161e-14,7 C9.90076453e-14,5.8954305 0.8954305,5 2,5 L14,5 Z M11,10 L5,10 L5,14 L11,14 L11,10 Z M3,7 C2.44771525,7 2,7.44771525 2,8 C2,8.55228475 2.44771525,9 3,9 C3.55228475,9 4,8.55228475 4,8 C4,7.44771525 3.55228475,7 3,7 Z M11,9.1038288e-15 C12.1045695,8.90092268e-15 13,0.8954305 13,2 L13,4 L3,4 L3,2 C3,0.8954305 3.8954305,9.30673493e-15 5,9.1038288e-15 L11,9.1038288e-15 Z"/>
</svg>
