<svg xmlns="http://www.w3.org/2000/svg" width="16" height="16" viewBox="0 0 16 16">
  <path d="M12.0033389 5C13.1085142 5 14 5.89666667 14 7 14 7.59690137 13.7390808 8.13331573 13.3245638 8.49998927 13.3358315 8.50997797 13.3469858 8.52007063 13.3580244 8.53028652 13.1341548 8.79229707 13 9.13071408 13 9.5 13 9.71807059 13.0467816 9.92537678 13.1308579 10.1124475 14.4580658 10.3482397 16 10.9599585 16 11.9444444L16 11.9444444 16 14 12 14 12 11.3333333C12 10.2550808 11.5267474 9.38041368 10.7750109 8.70669585 10.7359268 8.64571549 10.6932005 8.58701368 10.6465481 8.53173713L10.6791849 8.49998927C10.2628737 8.13331573 10 7.59690137 10 7 10 5.89666667 10.8981636 5 12.0033389 5zM5.00500835 5C6.02663285 5 6.92652328 5.51081075 7.46672339 6.29019164 6.88703008 6.64051236 6.5 7.27572854 6.5 8 6.5 8.72427146 6.88703008 9.35948764 7.46558545 9.71046957 6.92652328 10.4891892 6.02663285 11 5.00500835 11 3.98381601 11 3.0804538 10.4896213 2.53725896 9.71079728 3.115404 9.3602207 3.5 8.72468939 3.5 8 3.5 7.27531061 3.115404 6.6397793 2.53827101 6.28892312 3.0804538 5.51037869 3.98381601 5 5.00500835 5zM5 9C6.66785714 9 10 9.78 10 11.3333333L10 11.3333333 10 14 9.91429161e-14 14 9.91429161e-14 11.3333333C9.91429161e-14 9.78 3.33214286 9 5 9zM5.00500835 2C6.66277129 2 8 3.345 8 5 8 6.655 6.66277129 8 5.00500835 8 3.34724541 8 2 6.655 2 5 2 3.345 3.34724541 2 5.00500835 2z"/>
</svg>
