<svg width="32" height="32" viewBox="0 0 32 32" fill="none" xmlns="http://www.w3.org/2000/svg">
<rect width="32" height="32" fill="black" fill-opacity="0.01"/>
<rect x="1" y="1" width="30" height="30" rx="6" fill="#EDEFF2"/>
<rect x="1.5" y="1.5" width="29" height="29" rx="5.5" stroke="black" stroke-opacity="0.4"/>
<mask id="mask0" mask-type="alpha" maskUnits="userSpaceOnUse" x="1" y="1" width="30" height="30">
<rect x="1" y="1" width="30" height="30" rx="6" fill="white"/>
<rect x="1.5" y="1.5" width="29" height="29" rx="5.5" stroke="white"/>
</mask>
<g mask="url(#mask0)">
<mask id="path-5-inside-1" fill="white">
<path fill-rule="evenodd" clip-rule="evenodd" d="M18 17.0322C19.4817 16.2959 20.5 14.7669 20.5 13C20.5 10.5147 18.4853 8.5 16 8.5C13.5147 8.5 11.5 10.5147 11.5 13C11.5 14.7669 12.5183 16.2959 14 17.0322V24H18V17.0322Z"/>
</mask>
<path fill-rule="evenodd" clip-rule="evenodd" d="M18 17.0322C19.4817 16.2959 20.5 14.7669 20.5 13C20.5 10.5147 18.4853 8.5 16 8.5C13.5147 8.5 11.5 10.5147 11.5 13C11.5 14.7669 12.5183 16.2959 14 17.0322V24H18V17.0322Z" fill="#B8BDCC"/>
<path d="M18 17.0322L17.555 16.1367L17 16.4125V17.0322H18ZM14 17.0322H15V16.4125L14.445 16.1367L14 17.0322ZM14 24H13V25H14V24ZM18 24V25H19V24H18ZM18.445 17.9278C20.2536 17.029 21.5 15.161 21.5 13H19.5C19.5 14.3728 18.7098 15.5628 17.555 16.1367L18.445 17.9278ZM21.5 13C21.5 9.96243 19.0376 7.5 16 7.5V9.5C17.933 9.5 19.5 11.067 19.5 13H21.5ZM16 7.5C12.9624 7.5 10.5 9.96243 10.5 13H12.5C12.5 11.067 14.067 9.5 16 9.5V7.5ZM10.5 13C10.5 15.161 11.7464 17.029 13.555 17.9278L14.445 16.1367C13.2902 15.5628 12.5 14.3728 12.5 13H10.5ZM15 24V17.0322H13V24H15ZM18 23H14V25H18V23ZM17 17.0322V24H19V17.0322H17Z" fill="#5C5E66" mask="url(#path-5-inside-1)"/>
<mask id="path-7-inside-2" fill="white">
<path fill-rule="evenodd" clip-rule="evenodd" d="M9 7C9 8.10457 8.10457 9 7 9C5.89543 9 5 8.10457 5 7C5 5.89543 5.89543 5 7 5C8.10457 5 9 5.89543 9 7ZM27 7C27 8.10457 26.1046 9 25 9C23.8954 9 23 8.10457 23 7C23 5.89543 23.8954 5 25 5C26.1046 5 27 5.89543 27 7ZM25 27C26.1046 27 27 26.1046 27 25C27 23.8954 26.1046 23 25 23C23.8954 23 23 23.8954 23 25C23 26.1046 23.8954 27 25 27ZM9 25C9 26.1046 8.10457 27 7 27C5.89543 27 5 26.1046 5 25C5 23.8954 5.89543 23 7 23C8.10457 23 9 23.8954 9 25Z"/>
</mask>
<path fill-rule="evenodd" clip-rule="evenodd" d="M9 7C9 8.10457 8.10457 9 7 9C5.89543 9 5 8.10457 5 7C5 5.89543 5.89543 5 7 5C8.10457 5 9 5.89543 9 7ZM27 7C27 8.10457 26.1046 9 25 9C23.8954 9 23 8.10457 23 7C23 5.89543 23.8954 5 25 5C26.1046 5 27 5.89543 27 7ZM25 27C26.1046 27 27 26.1046 27 25C27 23.8954 26.1046 23 25 23C23.8954 23 23 23.8954 23 25C23 26.1046 23.8954 27 25 27ZM9 25C9 26.1046 8.10457 27 7 27C5.89543 27 5 26.1046 5 25C5 23.8954 5.89543 23 7 23C8.10457 23 9 23.8954 9 25Z" fill="#D4D6D9"/>
<path d="M7 9.5C8.38071 9.5 9.5 8.38071 9.5 7H8.5C8.5 7.82843 7.82843 8.5 7 8.5V9.5ZM4.5 7C4.5 8.38071 5.61929 9.5 7 9.5V8.5C6.17157 8.5 5.5 7.82843 5.5 7H4.5ZM7 4.5C5.61929 4.5 4.5 5.61929 4.5 7H5.5C5.5 6.17157 6.17157 5.5 7 5.5V4.5ZM9.5 7C9.5 5.61929 8.38071 4.5 7 4.5V5.5C7.82843 5.5 8.5 6.17157 8.5 7H9.5ZM25 9.5C26.3807 9.5 27.5 8.38071 27.5 7H26.5C26.5 7.82843 25.8284 8.5 25 8.5V9.5ZM22.5 7C22.5 8.38071 23.6193 9.5 25 9.5V8.5C24.1716 8.5 23.5 7.82843 23.5 7H22.5ZM25 4.5C23.6193 4.5 22.5 5.61929 22.5 7H23.5C23.5 6.17157 24.1716 5.5 25 5.5V4.5ZM27.5 7C27.5 5.61929 26.3807 4.5 25 4.5V5.5C25.8284 5.5 26.5 6.17157 26.5 7H27.5ZM26.5 25C26.5 25.8284 25.8284 26.5 25 26.5V27.5C26.3807 27.5 27.5 26.3807 27.5 25H26.5ZM25 23.5C25.8284 23.5 26.5 24.1716 26.5 25H27.5C27.5 23.6193 26.3807 22.5 25 22.5V23.5ZM23.5 25C23.5 24.1716 24.1716 23.5 25 23.5V22.5C23.6193 22.5 22.5 23.6193 22.5 25H23.5ZM25 26.5C24.1716 26.5 23.5 25.8284 23.5 25H22.5C22.5 26.3807 23.6193 27.5 25 27.5V26.5ZM7 27.5C8.38071 27.5 9.5 26.3807 9.5 25H8.5C8.5 25.8284 7.82843 26.5 7 26.5V27.5ZM4.5 25C4.5 26.3807 5.61929 27.5 7 27.5V26.5C6.17157 26.5 5.5 25.8284 5.5 25H4.5ZM7 22.5C5.61929 22.5 4.5 23.6193 4.5 25H5.5C5.5 24.1716 6.17157 23.5 7 23.5V22.5ZM9.5 25C9.5 23.6193 8.38071 22.5 7 22.5V23.5C7.82843 23.5 8.5 24.1716 8.5 25H9.5Z" fill="#707173" mask="url(#path-7-inside-2)"/>
</g>
</svg>
