<svg width="64" height="64" viewBox="0 0 64 64" fill="none" xmlns="http://www.w3.org/2000/svg">
<rect width="64" height="64" fill="black" fill-opacity="0.01"/>
<rect x="2" y="2" width="60" height="60" rx="12" fill="#EDEFF2"/>
<rect x="2.5" y="2.5" width="59" height="59" rx="11.5" stroke="black" stroke-opacity="0.4"/>
<mask id="mask0" mask-type="alpha" maskUnits="userSpaceOnUse" x="2" y="2" width="60" height="60">
<rect x="2" y="2" width="60" height="60" rx="12" fill="white"/>
<rect x="2.5" y="2.5" width="59" height="59" rx="11.5" stroke="white"/>
</mask>
<g mask="url(#mask0)">
<mask id="path-5-inside-1" fill="white">
<path fill-rule="evenodd" clip-rule="evenodd" d="M36 34.0645C38.9634 32.5918 41 29.5337 41 26C41 21.0294 36.9706 17 32 17C27.0294 17 23 21.0294 23 26C23 29.5337 25.0366 32.5918 28 34.0645V48H36V34.0645Z"/>
</mask>
<path fill-rule="evenodd" clip-rule="evenodd" d="M36 34.0645C38.9634 32.5918 41 29.5337 41 26C41 21.0294 36.9706 17 32 17C27.0294 17 23 21.0294 23 26C23 29.5337 25.0366 32.5918 28 34.0645V48H36V34.0645Z" fill="#B8BDCC"/>
<path d="M36 34.0645L35.555 33.169L35 33.4448V34.0645H36ZM28 34.0645H29V33.4448L28.445 33.169L28 34.0645ZM28 48H27V49H28V48ZM36 48V49H37V48H36ZM36.445 34.96C39.7353 33.3249 42 29.9278 42 26H40C40 29.1396 38.1916 31.8587 35.555 33.169L36.445 34.96ZM42 26C42 20.4772 37.5228 16 32 16V18C36.4183 18 40 21.5817 40 26H42ZM32 16C26.4772 16 22 20.4772 22 26H24C24 21.5817 27.5817 18 32 18V16ZM22 26C22 29.9278 24.2647 33.3249 27.555 34.96L28.445 33.169C25.8084 31.8587 24 29.1396 24 26H22ZM29 48V34.0645H27V48H29ZM36 47H28V49H36V47ZM35 34.0645V48H37V34.0645H35Z" fill="#5C5E66" mask="url(#path-5-inside-1)"/>
<mask id="path-7-inside-2" fill="white">
<path fill-rule="evenodd" clip-rule="evenodd" d="M18 14C18 16.2091 16.2091 18 14 18C11.7909 18 10 16.2091 10 14C10 11.7909 11.7909 10 14 10C16.2091 10 18 11.7909 18 14ZM54 14C54 16.2091 52.2091 18 50 18C47.7909 18 46 16.2091 46 14C46 11.7909 47.7909 10 50 10C52.2091 10 54 11.7909 54 14ZM50 54C52.2091 54 54 52.2091 54 50C54 47.7909 52.2091 46 50 46C47.7909 46 46 47.7909 46 50C46 52.2091 47.7909 54 50 54ZM18 50C18 52.2091 16.2091 54 14 54C11.7909 54 10 52.2091 10 50C10 47.7909 11.7909 46 14 46C16.2091 46 18 47.7909 18 50Z"/>
</mask>
<path fill-rule="evenodd" clip-rule="evenodd" d="M18 14C18 16.2091 16.2091 18 14 18C11.7909 18 10 16.2091 10 14C10 11.7909 11.7909 10 14 10C16.2091 10 18 11.7909 18 14ZM54 14C54 16.2091 52.2091 18 50 18C47.7909 18 46 16.2091 46 14C46 11.7909 47.7909 10 50 10C52.2091 10 54 11.7909 54 14ZM50 54C52.2091 54 54 52.2091 54 50C54 47.7909 52.2091 46 50 46C47.7909 46 46 47.7909 46 50C46 52.2091 47.7909 54 50 54ZM18 50C18 52.2091 16.2091 54 14 54C11.7909 54 10 52.2091 10 50C10 47.7909 11.7909 46 14 46C16.2091 46 18 47.7909 18 50Z" fill="#D4D6D9"/>
<path d="M14 18.5C16.4853 18.5 18.5 16.4853 18.5 14H17.5C17.5 15.933 15.933 17.5 14 17.5V18.5ZM9.5 14C9.5 16.4853 11.5147 18.5 14 18.5V17.5C12.067 17.5 10.5 15.933 10.5 14H9.5ZM14 9.5C11.5147 9.5 9.5 11.5147 9.5 14H10.5C10.5 12.067 12.067 10.5 14 10.5V9.5ZM18.5 14C18.5 11.5147 16.4853 9.5 14 9.5V10.5C15.933 10.5 17.5 12.067 17.5 14H18.5ZM50 18.5C52.4853 18.5 54.5 16.4853 54.5 14H53.5C53.5 15.933 51.933 17.5 50 17.5V18.5ZM45.5 14C45.5 16.4853 47.5147 18.5 50 18.5V17.5C48.067 17.5 46.5 15.933 46.5 14H45.5ZM50 9.5C47.5147 9.5 45.5 11.5147 45.5 14H46.5C46.5 12.067 48.067 10.5 50 10.5V9.5ZM54.5 14C54.5 11.5147 52.4853 9.5 50 9.5V10.5C51.933 10.5 53.5 12.067 53.5 14H54.5ZM53.5 50C53.5 51.933 51.933 53.5 50 53.5V54.5C52.4853 54.5 54.5 52.4853 54.5 50H53.5ZM50 46.5C51.933 46.5 53.5 48.067 53.5 50H54.5C54.5 47.5147 52.4853 45.5 50 45.5V46.5ZM46.5 50C46.5 48.067 48.067 46.5 50 46.5V45.5C47.5147 45.5 45.5 47.5147 45.5 50H46.5ZM50 53.5C48.067 53.5 46.5 51.933 46.5 50H45.5C45.5 52.4853 47.5147 54.5 50 54.5V53.5ZM14 54.5C16.4853 54.5 18.5 52.4853 18.5 50H17.5C17.5 51.933 15.933 53.5 14 53.5V54.5ZM9.5 50C9.5 52.4853 11.5147 54.5 14 54.5V53.5C12.067 53.5 10.5 51.933 10.5 50H9.5ZM14 45.5C11.5147 45.5 9.5 47.5147 9.5 50H10.5C10.5 48.067 12.067 46.5 14 46.5V45.5ZM18.5 50C18.5 47.5147 16.4853 45.5 14 45.5V46.5C15.933 46.5 17.5 48.067 17.5 50H18.5Z" fill="#707173" mask="url(#path-7-inside-2)"/>
</g>
</svg>
