<svg xmlns="http://www.w3.org/2000/svg" width="16" height="16" viewBox="0 0 16 16">
  <path fill-rule="evenodd" d="M8,-1.42108547e-14 C12.418278,-1.42108547e-14 16,3.581722 16,8 C16,12.418278 12.418278,16 8,16 C6.53989655,16 5.17115312,15.6088412 3.99284387,14.9255979 L2.27373675e-13,16 L1.09827286,12.0480437 C0.400277145,10.8605579 2.27373675e-13,9.47702381 2.27373675e-13,8 C2.27373675e-13,3.581722 3.581722,-1.42108547e-14 8,-1.42108547e-14 Z M5.56206272,4.25 C5.33666991,4.25 5.09644818,4.3535937 4.91230283,4.57017777 L4.78868727,4.71509999 C4.7270163,4.79060941 4.6712445,4.86639489 4.61810766,4.94951811 C4.38521245,5.3138416 4.25,5.74682266 4.25,6.27977249 C4.25,6.75342825 4.39388136,7.2415343 4.63256177,7.72340549 L4.72498891,7.90163142 C4.78560074,8.01303443 4.844713,8.11104564 4.90540345,8.20428552 L5.28645085,8.76737463 C5.316412,8.80985639 5.34486555,8.84958919 5.36975151,8.88341939 C5.64118416,9.2524074 5.94550266,9.61427485 6.28477101,9.95373953 C6.82977685,10.4990608 7.41546727,10.9363342 8.03995465,11.2267865 C8.39417807,11.3916004 8.67717608,11.5012948 9.04635817,11.6274587 C9.44700348,11.7646059 9.83233228,11.7787445 10.2517073,11.7112279 C10.7420616,11.6323575 11.4524789,11.1419012 11.6117917,10.6609441 C11.7559792,10.225442 11.7934082,9.75827075 11.6933469,9.57852234 C11.6545576,9.50875625 11.6000093,9.45655813 11.5277758,9.40872089 L11.0207137,9.13370232 C10.6334255,8.92851526 10.1732621,8.69185888 10.0593523,8.64714028 C9.75845769,8.5291264 9.54457746,8.55550288 9.36789189,8.84120208 C9.33162756,8.89985246 9.26366518,8.99517164 9.18326866,9.10290813 L8.83096589,9.55905781 C8.82861163,9.55984527 8.82291055,9.54927993 8.7807278,9.52652173 L8.40641489,9.3419794 C8.35703287,9.31633679 8.31146591,9.29190231 8.27634731,9.27168713 C7.99906698,9.11207732 7.72612115,8.91055125 7.45024315,8.64546889 C7.13180456,8.3395017 6.8654579,7.97890432 6.65695781,7.62947052 L6.5248283,7.39412372 C6.52484055,7.39093236 6.52633285,7.38767326 6.52976398,7.38319427 L6.61708219,7.28802496 L6.84849866,6.99249951 L6.90450656,6.91635961 L6.96690076,6.81216159 L7.05178802,6.63268861 C7.12301815,6.47901416 7.12295569,6.33332569 7.07310275,6.18593905 L6.89896653,5.74461144 L6.49512295,4.69092322 L6.48449119,4.6662002 C6.3646146,4.39497492 6.21880471,4.28395385 6.01476629,4.26148042 L5.75099248,4.2515018 C5.69597597,4.25045543 5.6336855,4.25 5.56206272,4.25 Z"/>
</svg>
