<?xml version="1.0" encoding="UTF-8"?>
<svg width="16px" height="16px" viewBox="0 0 16 16" version="1.1" xmlns="http://www.w3.org/2000/svg" xmlns:xlink="http://www.w3.org/1999/xlink">
    <title>DB855B09-9844-499F-B4BE-EB4FEFCD4A76@1x</title>
    <defs>
        <filter id="filter-1">
            <feColorMatrix in="SourceGraphic" type="matrix" values="0 0 0 0 0.000000 0 0 0 0 0.000000 0 0 0 0 0.000000 0 0 0 1.000000 0"></feColorMatrix>
        </filter>
    </defs>
    <g id="----↳--01-Icons" stroke="none" stroke-width="1" fill="none" fill-rule="evenodd">
        <g id="tint" filter="url(#filter-1)">
            <g transform="translate(3.000000, 3.000000)">
                <path d="M5,0 C5.55228475,-1.01453063e-16 6,0.44771525 6,1 L6,3.999 L9,4 C9.55228475,4 10,4.44771525 10,5 C10,5.55228475 9.55228475,6 9,6 L6,6 L6,9 C6,9.55228475 5.55228475,10 5,10 C4.44771525,10 4,9.55228475 4,9 L4,6 L1,6 C0.44771525,6 0,5.55228475 0,5 C0,4.44771525 0.44771525,4 1,4 L4,4 L4,1 C4,0.44771525 4.44771525,1.01453063e-16 5,0 Z" id="Combined-Shape" fill="#000000" fill-rule="nonzero"></path>
            </g>
        </g>
    </g>
</svg>