<svg xmlns="http://www.w3.org/2000/svg" width="16" height="16" viewBox="0 0 16 16">
  <path fill="none" stroke="#000" stroke-width="2" d="M7.95791973,1.00505647 C8.11984318,1.04227623 8.14016786,1.06260525 8.15506768,1.08674252 L8.15506768,1.08674252 L10.5031958,4.89063946 L14.8597846,5.93282288 C14.9087644,5.94453983 14.948358,5.97500052 14.9727775,6.01477692 C14.997197,6.05455332 15.0064422,6.10364543 14.9947253,6.15262522 C14.9879127,6.18110335 14.9743432,6.20752245 14.9551641,6.22964877 L14.9551641,6.22964877 L12.0462565,9.58555277 L12.4016948,14.0223358 C12.4057165,14.0725367 12.3890095,14.1196152 12.3587468,14.1551489 C12.3284842,14.1906826 12.2846659,14.2146715 12.2344649,14.2186932 C12.2057844,14.2209909 12.1769671,14.21647 12.1503679,14.2055002 L12.1503679,14.2055002 L7.9993167,12.4935487 L3.84939972,14.2054951 C3.80284379,14.2247006 3.75291073,14.2232174 3.70981527,14.2052939 C3.66671982,14.1873703 3.63046197,14.1530064 3.61125646,14.1064504 C3.60028771,14.0798612 3.59576346,14.0510546 3.59805314,14.022383 L3.59805314,14.022383 L3.95237444,9.58555262 L1.04456167,6.2296233 C1.01158248,6.19156177 0.997152919,6.14373607 1.00048354,6.09718095 C1.00381415,6.05062583 1.02490495,6.0053413 1.06296648,5.97236211 C1.08508488,5.95319717 1.11149069,5.9396367 1.13995354,5.93282607 L1.13995354,5.93282607 L5.49543686,4.89063965 L7.844709,1.08670934 C7.871172,1.04386058 7.91249765,1.01579455 7.95791973,1.00505647 Z"/>
</svg>
