<svg xmlns="http://www.w3.org/2000/svg" width="16" height="16" viewBox="0 0 16 16">
  <g fill="none" fill-rule="evenodd">
    <rect width="16" height="16" opacity=".3"/>
    <polyline stroke="#000" stroke-linecap="round" stroke-linejoin="round" stroke-width="2" points="4 5 1 8 4 11"/>
    <polyline stroke="#000" stroke-linecap="round" stroke-linejoin="round" stroke-width="2" points="8 5 5 8 8 11"/>
    <path fill="#000" fill-rule="nonzero" d="M9.05421356,2 C8.54137772,2 8.1187064,2.38604019 8.06094129,2.88337887 L8.05421356,3 L8.05421356,13 C8.05421356,13.5128358 8.44025375,13.9355072 8.93759244,13.9932723 L9.05421356,14 L15,14 C15.5522847,14 16,14.4477153 16,15 C16,15.5128358 15.6139598,15.9355072 15.1166211,15.9932723 L15,16 L9.05421356,16 C7.39735931,16 6.05421356,14.6568542 6.05421356,13 L6.05421356,3 C6.05421356,1.34314575 7.39735931,7.10542736e-15 9.05421356,7.10542736e-15 L15,7.10542736e-15 C15.5522847,7.10542736e-15 16,0.44771525 16,1 C16,1.51283584 15.6139598,1.93550716 15.1166211,1.99327227 L15,2 L9.05421356,2 Z" transform="matrix(-1 0 0 1 22.054 0)"/>
  </g>
</svg>
