<svg xmlns="http://www.w3.org/2000/svg" width="16" height="16" viewBox="0 0 16 16">
  <g fill="none" fill-rule="evenodd" stroke="#000" stroke-width="2">
    <path d="M7.00772212,1.56701593 L2.00772212,4.42415879 C1.38457213,4.7802445 1,5.44293138 1,6.16064507 L1,14 C1,14.5522847 1.44771525,15 2,15 L14,15 C14.5522847,15 15,14.5522847 15,14 L15,6.16064507 C15,5.44293138 14.6154279,4.7802445 13.9922779,4.42415879 L8.99227788,1.56701593 C8.37741254,1.21566431 7.62258746,1.21566431 7.00772212,1.56701593 Z"/>
    <path d="M1,15 L5.41421356,10.5857864 C5.78928632,10.2107137 6.29799415,10 6.82842712,10 L9.17157288,10 C9.70200585,10 10.2107137,10.2107137 10.5857864,10.5857864 L15,15 L15,15"/>
    <line x1="6" x2="1" y1="10" y2="7"/>
    <line x1="10" x2="15" y1="10" y2="7"/>
  </g>
</svg>
